<svg xmlns="http://www.w3.org/2000/svg" xmlns:xlink="http://www.w3.org/1999/xlink" width="26.56" height="26" viewBox="0 0 26.56 26">
  <metadata><?xpacket begin="﻿" id="W5M0MpCehiHzreSzNTczkc9d"?>
<x:xmpmeta xmlns:x="adobe:ns:meta/" x:xmptk="Adobe XMP Core 5.6-c138 79.159824, 2016/09/14-01:09:01        ">
   <rdf:RDF xmlns:rdf="http://www.w3.org/1999/02/22-rdf-syntax-ns#">
      <rdf:Description rdf:about=""/>
   </rdf:RDF>
</x:xmpmeta>
                                                                                                    
                                                                                                    
                                                                                                    
                                                                                                    
                                                                                                    
                                                                                                    
                                                                                                    
                                                                                                    
                                                                                                    
                                                                                                    
                                                                                                    
                                                                                                    
                                                                                                    
                                                                                                    
                                                                                                    
                                                                                                    
                                                                                                    
                                                                                                    
                                                                                                    
                                                                                                    
                           
<?xpacket end="w"?></metadata>
<defs>
    <style>
      .cls-1 {
        fill: #fff;
        fill-rule: evenodd;
        filter: url(#filter);
      }
    </style>
    <filter id="filter" x="1018" y="147" width="26.56" height="26" filterUnits="userSpaceOnUse">
      <feOffset result="offset" dy="1" in="SourceAlpha"/>
      <feGaussianBlur result="blur"/>
      <feFlood result="flood" flood-color="#fff"/>
      <feComposite result="composite" operator="in" in2="blur"/>
      <feBlend result="blend" in="SourceGraphic"/>
      <feFlood result="flood-2" flood-color="#7d7d7d"/>
      <feComposite result="composite-2" operator="in" in2="SourceGraphic"/>
      <feBlend result="blend-2" in2="blend"/>
    </filter>
  </defs>
  <path id="Shape_2_copy" data-name="Shape 2 copy" class="cls-1" d="M1031.79,173a13,13,0,1,1,12.77-13A12.9,12.9,0,0,1,1031.79,173Zm5.37-5.985a13.58,13.58,0,0,1-3.01,4.367,11.323,11.323,0,0,0,5.34-2.8A15.358,15.358,0,0,0,1037.16,167.015Zm-13.11,1.54a11.325,11.325,0,0,0,5.37,2.827,13.54,13.54,0,0,1-3.07-4.5A13.785,13.785,0,0,0,1024.05,168.555Zm8.41-3.048v5.546a11.74,11.74,0,0,0,3.48-4.63A11.677,11.677,0,0,0,1032.46,165.507Zm-4.89.767a11.747,11.747,0,0,0,3.54,4.779v-5.585A9.939,9.939,0,0,0,1027.57,166.274Zm10.06-.5a18.487,18.487,0,0,1,2.8,1.835,11.689,11.689,0,0,0,2.77-6.926h-4.7A17.662,17.662,0,0,1,1037.63,165.775Zm-17.26-5.091a11.706,11.706,0,0,0,2.74,6.886,14.973,14.973,0,0,1,2.77-1.987,17.709,17.709,0,0,1-.81-4.9h-4.7Zm12.09,3.483a13.242,13.242,0,0,1,3.94,1.024,16.147,16.147,0,0,0,.75-4.507h-4.69v3.483Zm-6.04-3.483a16.62,16.62,0,0,0,.68,4.305,11.133,11.133,0,0,1,4.01-.867v-3.438h-4.69Zm12.08-1.368h4.7a11.7,11.7,0,0,0-2.74-6.885,15.012,15.012,0,0,1-2.77,1.986A17.709,17.709,0,0,1,1038.5,159.316Zm-6.04,0h4.69a16.605,16.605,0,0,0-.68-4.3,11.152,11.152,0,0,1-4.01.866v3.438Zm-6.04,0h4.69v-3.483a13.242,13.242,0,0,1-3.94-1.024A16.521,16.521,0,0,0,1026.42,159.316Zm-6.05,0h4.7a17.662,17.662,0,0,1,.87-5.091,17.746,17.746,0,0,1-2.79-1.836A11.642,11.642,0,0,0,1020.37,159.316Zm12.09-10.369v5.585a9.994,9.994,0,0,0,3.55-.806A11.839,11.839,0,0,0,1032.46,148.947Zm-4.83,4.63a11.647,11.647,0,0,0,3.48.916v-5.546A11.74,11.74,0,0,0,1027.63,153.577Zm6.52-4.959a13.54,13.54,0,0,1,3.07,4.5,13.785,13.785,0,0,0,2.3-1.677A11.325,11.325,0,0,0,1034.15,148.618Zm-10.07,2.8a15.358,15.358,0,0,0,2.33,1.568,13.58,13.58,0,0,1,3.01-4.367A11.323,11.323,0,0,0,1024.08,151.417Z" transform="translate(-1018 -147)"/>
</svg>
